<?xml version="1.0"?><svg width="793.3333333333333" height="1122.6666666666665" xmlns="http://www.w3.org/2000/svg">

 <g>
  <title>Layer 1</title>
  <g transform="matrix(1.841164,0,0,1.841164,-502.3246,-535.8876) " id="g6522">
   <path fill="#000000" fill-rule="evenodd" stroke="#000000" stroke-width="1.0000000pt" id="path1535" d="m480.349579,691.527405c64.09079,0 116.125031,-52.034241 116.125031,-116.125c0,-64.09079 -52.034241,-116.093781 -116.125031,-116.09375l0,0.03125c31.922882,0.135956 57.812531,26.07663 57.812531,58.03125c0,31.869934 -25.756348,57.759399 -57.562531,58.03125l0,116.09375c-0.084106,0 -0.166016,0.000366 -0.25,0l0,0.03125zm0,-0.03125l0,-116.0625c-0.084015,0.000366 -0.165924,0 -0.25,0c-31.806244,0.271851 -57.53125,26.161255 -57.53125,58.03125c0,31.95459 25.858337,57.895264 57.78125,58.03125zm-0.25,-116.0625c0.084442,-0.000732 0.165436,-0.030884 0.25,-0.03125l-0.25,0.03125zm0.25,-0.03125l0,0.03125c0.084534,-0.000366 0.165527,-0.030579 0.25,-0.03125c-0.084106,0 -0.166016,-0.000366 -0.25,0zm0,-116.0625c-0.084015,-0.000366 -0.165924,0 -0.25,0l0.25,0z"/>
   <path fill="#ffffff" fill-rule="evenodd" stroke="#000000" stroke-width="1.0000000pt" id="path6517" d="m479.359741,459.36261c-64.090759,0.000031 -116.125,52.03421 -116.125,116.125c0,64.090759 52.03421,116.093811 116.125,116.09375l0,-0.03125c-31.922852,-0.135986 -57.8125,-26.076599 -57.8125,-58.03125c0,-31.869995 25.756317,-57.759338 57.5625,-58.03125l0.25,-0.03125c0.084045,-0.000366 0.165924,0 0.25,0c31.806274,-0.271851 57.531311,-26.161194 57.531311,-58.03125c0,-31.95462 -25.858398,-57.895264 -57.781311,-58.03125l-0.25,0c0.084137,0.000031 0.166016,-0.000336 0.25,0l0,-0.03125zm0,116.09375c-0.084503,0.000366 -0.165527,0.030579 -0.25,0.03125c0.084137,0 0.166016,0.000366 0.25,0l0,-0.03125z"/>
   <path fill="#ffffff" fill-rule="evenodd" stroke="#000000" stroke-width="1.0000000pt" id="path6520" d="m510.93277,641.847717c0,-13.662842 -11.075928,-24.73877 -24.73877,-24.73877c-13.662842,0 -24.7388,11.075928 -24.7388,24.73877c0,13.662842 11.075958,24.73877 24.7388,24.73877c13.662842,0 24.73877,-11.075928 24.73877,-24.73877l0,0z"/>
   <path fill="#000000" fill-rule="evenodd" stroke="#000000" stroke-width="1.0000000pt" id="path6521" d="m508.184021,516.321289c0,-13.662842 -11.075928,-24.7388 -24.73877,-24.7388c-13.662842,0 -24.7388,11.075958 -24.7388,24.7388c0,13.662842 11.075958,24.73877 24.7388,24.73877c13.662842,0 24.73877,-11.075928 24.73877,-24.73877l0,0z"/>
  </g>
 </g>
</svg>